<svg xmlns="http://www.w3.org/2000/svg" xmlns:xlink="http://www.w3.org/1999/xlink" width="1080" height="1080" viewBox="0 0 1080 1080" xml:space="preserve"><desc>Created with Fabric.js 5.2.4</desc><defs></defs><g transform="matrix(1 0 0 1 540 540)" id="9ef8ab5b-058d-453c-9935-4b8fff794697"></g><g transform="matrix(1 0 0 1 540 540)" id="3d8dafdf-69e3-4a8c-bd8f-6c717c71bb41"><rect style="stroke: none; stroke-width: 1; stroke-dasharray: none; stroke-linecap: butt; stroke-dashoffset: 0; stroke-linejoin: miter; stroke-miterlimit: 4; fill: rgb(255,255,255); fill-rule: nonzero; opacity: 1; visibility: hidden;" x="-540" y="-540" rx="0" ry="0" width="1080" height="1080"></rect></g><g transform="matrix(1 0 0 1 540 540)"><g style="">		<g transform="matrix(1 0 0 1 0 0)"><rect style="stroke: none; stroke-width: 1; stroke-dasharray: none; stroke-linecap: butt; stroke-dashoffset: 0; stroke-linejoin: miter; stroke-miterlimit: 4; fill: rgb(255,255,255); fill-rule: nonzero; opacity: 1; visibility: hidden;" x="-540" y="-540" rx="0" ry="0" width="1080" height="1080"></rect></g>		<g transform="matrix(4.87 0 0 4.87 -0.77 2.63)"><path style="stroke: rgb(0,0,0); stroke-width: 0; stroke-dasharray: none; stroke-linecap: butt; stroke-dashoffset: 0; stroke-linejoin: miter; stroke-miterlimit: 4; fill: rgb(255,255,255); fill-rule: nonzero; opacity: 1;" transform=" translate(-388.71, -359.7)" d="M 495.910156 297.929688 L 415.578125 251.179688 C 415.015625 250.796875 414.332031 250.574219 413.601562 250.574219 L 363.832031 250.585938 C 363.230469 250.585938 362.625 250.738281 362.074219 251.054688 L 281.523438 297.933594 C 280.378906 298.511719 279.59375 299.695312 279.59375 301.070312 L 279.59375 465.308594 C 279.59375 467.253906 281.167969 468.828125 283.109375 468.828125 L 494.316406 468.828125 C 496.257812 468.828125 497.835938 467.253906 497.835938 465.308594 L 497.835938 301.066406 C 497.84375 299.695312 497.054688 298.511719 495.910156 297.929688 Z M 475.671875 342.957031 L 351.539062 342.957031 L 351.539062 334.730469 L 475.671875 334.730469 Z M 351.539062 349.996094 L 475.671875 349.996094 L 475.671875 358.226562 L 351.539062 358.226562 Z M 475.671875 327.691406 L 351.539062 327.691406 L 351.539062 319.464844 L 475.671875 319.464844 Z M 351.539062 365.265625 L 475.671875 365.265625 L 475.671875 461.785156 L 467.972656 461.785156 L 467.972656 378.351562 C 467.972656 376.410156 466.398438 374.835938 464.453125 374.835938 L 417.753906 374.835938 C 415.8125 374.835938 414.234375 376.410156 414.234375 378.351562 L 414.234375 461.785156 L 390.597656 461.785156 C 391.214844 460.46875 391.574219 459.011719 391.574219 457.46875 L 391.574219 455.964844 L 398.277344 455.964844 C 400.21875 455.964844 401.796875 454.386719 401.796875 452.445312 C 401.796875 450.5 400.21875 448.925781 398.277344 448.925781 L 394.359375 448.925781 L 394.359375 423.460938 C 394.359375 421.519531 392.78125 419.941406 390.839844 419.941406 L 365.378906 419.941406 L 365.378906 394.476562 C 365.378906 392.535156 363.804688 390.957031 361.859375 390.957031 L 351.539062 390.957031 Z M 438.996094 381.871094 L 460.9375 381.871094 L 460.9375 403.816406 L 438.996094 403.816406 Z M 421.273438 410.855469 L 431.957031 410.855469 L 431.957031 432.800781 L 421.273438 432.800781 Z M 460.9375 432.800781 L 438.996094 432.800781 L 438.996094 410.855469 L 460.9375 410.855469 Z M 431.957031 403.816406 L 421.273438 403.816406 L 421.273438 381.871094 L 431.957031 381.871094 Z M 421.273438 439.839844 L 431.957031 439.839844 L 431.957031 461.785156 L 421.273438 461.785156 Z M 438.996094 461.785156 L 438.996094 439.839844 L 460.9375 439.839844 L 460.9375 461.785156 Z M 383.621094 459.695312 C 383.046875 460.257812 382.261719 460.613281 381.394531 460.613281 C 380.59375 460.613281 379.855469 460.3125 379.300781 459.816406 L 379.179688 459.691406 C 378.613281 459.121094 378.257812 458.332031 378.257812 457.472656 L 378.257812 455.96875 L 384.542969 455.96875 L 384.542969 457.472656 C 384.539062 458.332031 384.183594 459.117188 383.621094 459.695312 Z M 387.320312 448.925781 L 365.378906 448.925781 L 365.378906 426.980469 L 387.320312 426.980469 Z M 329.363281 419.941406 L 318.679688 419.941406 L 318.679688 397.996094 L 329.363281 397.996094 Z M 336.402344 426.980469 L 358.34375 426.980469 L 358.34375 448.925781 L 336.402344 448.925781 Z M 356.144531 455.964844 L 356.144531 457.46875 C 356.144531 458.332031 355.789062 459.117188 355.226562 459.695312 C 354.652344 460.257812 353.867188 460.613281 353 460.613281 C 352.199219 460.613281 351.460938 460.3125 350.90625 459.816406 L 350.785156 459.691406 C 350.21875 459.121094 349.863281 458.332031 349.863281 457.472656 L 349.863281 455.96875 L 356.144531 455.96875 Z M 315.160156 390.957031 C 313.449219 390.957031 312.019531 392.183594 311.707031 393.8125 L 299.277344 380.726562 L 316.199219 380.726562 C 316.722656 380.726562 317.535156 381.011719 318.425781 381.46875 C 319.457031 382 320.46875 382.71875 321.21875 383.503906 L 328.292969 390.957031 Z M 318.679688 426.980469 L 329.363281 426.980469 L 329.363281 448.925781 L 318.679688 448.925781 Z M 321.464844 455.964844 L 327.75 455.964844 L 327.75 457.46875 C 327.75 458.332031 327.394531 459.117188 326.828125 459.683594 L 326.707031 459.808594 C 326.148438 460.304688 325.414062 460.605469 324.605469 460.605469 C 323.738281 460.605469 322.953125 460.25 322.390625 459.683594 C 321.824219 459.117188 321.46875 458.324219 321.46875 457.46875 L 321.46875 455.964844 Z M 333.8125 461.785156 C 334.425781 460.46875 334.789062 459.011719 334.789062 457.46875 L 334.789062 455.964844 L 342.824219 455.964844 L 342.824219 457.46875 C 342.824219 459.011719 343.179688 460.46875 343.800781 461.785156 Z M 363.179688 457.46875 L 363.179688 455.964844 L 371.214844 455.964844 L 371.214844 457.46875 C 371.214844 459.011719 371.566406 460.46875 372.191406 461.785156 L 362.203125 461.785156 C 362.828125 460.46875 363.179688 459.011719 363.179688 457.46875 Z M 358.34375 397.996094 L 358.34375 419.941406 L 336.402344 419.941406 L 336.402344 397.996094 Z M 481.296875 297.550781 L 345.914062 297.550781 L 413.601562 258.15625 Z M 364.765625 257.613281 L 400.578125 257.613281 L 331.957031 297.550781 L 296.136719 297.550781 Z M 286.628906 304.585938 L 329.371094 304.585938 L 329.371094 381.894531 L 326.304688 378.671875 C 325.027344 377.320312 323.324219 376.105469 321.617188 375.226562 C 319.765625 374.277344 317.8125 373.6875 316.203125 373.6875 L 294.976562 373.6875 C 293.96875 373.6875 293.070312 373.90625 292.289062 374.316406 C 291.109375 374.933594 290.335938 375.886719 289.984375 377.105469 L 289.996094 377.109375 C 289.757812 377.9375 289.75 378.832031 289.984375 379.746094 L 290.09375 380.160156 C 290.445312 381.21875 291.164062 382.371094 292.238281 383.503906 L 311.640625 403.933594 L 311.640625 448.917969 L 307.722656 448.917969 C 305.78125 448.917969 304.203125 450.496094 304.203125 452.4375 C 304.203125 454.378906 305.78125 455.957031 307.722656 455.957031 L 314.425781 455.957031 L 314.425781 457.464844 C 314.425781 459.007812 314.777344 460.464844 315.402344 461.78125 L 286.628906 461.78125 Z M 490.804688 461.785156 L 482.707031 461.785156 L 482.707031 315.945312 C 482.707031 314.003906 481.128906 312.425781 479.1875 312.425781 L 348.019531 312.425781 C 346.078125 312.425781 344.5 314.003906 344.5 315.945312 L 344.5 390.957031 L 337.972656 390.957031 L 336.402344 389.304688 L 336.402344 304.585938 L 490.804688 304.585938 Z M 490.804688 461.785156" stroke-linecap="round"></path></g></g></g></svg>